<?xml version="1.0" encoding="UTF-8" standalone="no"?>
<!-- Created with Inkscape (http://www.inkscape.org/) -->

<svg
   xmlns:dc="http://purl.org/dc/elements/1.1/"
   xmlns:cc="http://creativecommons.org/ns#"
   xmlns:rdf="http://www.w3.org/1999/02/22-rdf-syntax-ns#"
   xmlns:svg="http://www.w3.org/2000/svg"
   xmlns="http://www.w3.org/2000/svg"
   xmlns:sodipodi="http://sodipodi.sourceforge.net/DTD/sodipodi-0.dtd"
   xmlns:inkscape="http://www.inkscape.org/namespaces/inkscape"
   width="224.55733"
   height="272.90817"
   id="svg2"
   sodipodi:version="0.32"
   inkscape:version="0.47 r22583"
   sodipodi:docname="Chrisdesign_Tree_silhouettes_1.svg"
   inkscape:output_extension="org.inkscape.output.svg.inkscape"
   version="1.0"
   sodipodi:modified="true"
   inkscape:export-filename="/home/floyd/projekty/lacerta/repository/lacerta/site_media/dupa2.png"
   inkscape:export-xdpi="90"
   inkscape:export-ydpi="90">
  <defs
     id="defs4">
    <inkscape:perspective
       sodipodi:type="inkscape:persp3d"
       inkscape:vp_x="0 : 136.45409 : 1"
       inkscape:vp_y="0 : 1000 : 0"
       inkscape:vp_z="224.55733 : 136.45409 : 1"
       inkscape:persp3d-origin="112.27866 : 90.969391 : 1"
       id="perspective2987" />
    <inkscape:perspective
       id="perspective3105"
       inkscape:persp3d-origin="0.5 : 0.33333333 : 1"
       inkscape:vp_z="1 : 0.5 : 1"
       inkscape:vp_y="0 : 1000 : 0"
       inkscape:vp_x="0 : 0.5 : 1"
       sodipodi:type="inkscape:persp3d" />
    <inkscape:perspective
       id="perspective3129"
       inkscape:persp3d-origin="0.5 : 0.33333333 : 1"
       inkscape:vp_z="1 : 0.5 : 1"
       inkscape:vp_y="0 : 1000 : 0"
       inkscape:vp_x="0 : 0.5 : 1"
       sodipodi:type="inkscape:persp3d" />
    <inkscape:perspective
       id="perspective3175"
       inkscape:persp3d-origin="0.5 : 0.33333333 : 1"
       inkscape:vp_z="1 : 0.5 : 1"
       inkscape:vp_y="0 : 1000 : 0"
       inkscape:vp_x="0 : 0.5 : 1"
       sodipodi:type="inkscape:persp3d" />
    <inkscape:perspective
       id="perspective4001"
       inkscape:persp3d-origin="0.5 : 0.33333333 : 1"
       inkscape:vp_z="1 : 0.5 : 1"
       inkscape:vp_y="0 : 1000 : 0"
       inkscape:vp_x="0 : 0.5 : 1"
       sodipodi:type="inkscape:persp3d" />
    <inkscape:perspective
       id="perspective5038"
       inkscape:persp3d-origin="0.5 : 0.33333333 : 1"
       inkscape:vp_z="1 : 0.5 : 1"
       inkscape:vp_y="0 : 1000 : 0"
       inkscape:vp_x="0 : 0.5 : 1"
       sodipodi:type="inkscape:persp3d" />
    <inkscape:perspective
       id="perspective5078"
       inkscape:persp3d-origin="0.5 : 0.33333333 : 1"
       inkscape:vp_z="1 : 0.5 : 1"
       inkscape:vp_y="0 : 1000 : 0"
       inkscape:vp_x="0 : 0.5 : 1"
       sodipodi:type="inkscape:persp3d" />
    <inkscape:perspective
       id="perspective5100"
       inkscape:persp3d-origin="0.5 : 0.33333333 : 1"
       inkscape:vp_z="1 : 0.5 : 1"
       inkscape:vp_y="0 : 1000 : 0"
       inkscape:vp_x="0 : 0.5 : 1"
       sodipodi:type="inkscape:persp3d" />
    <inkscape:perspective
       id="perspective5122"
       inkscape:persp3d-origin="0.5 : 0.33333333 : 1"
       inkscape:vp_z="1 : 0.5 : 1"
       inkscape:vp_y="0 : 1000 : 0"
       inkscape:vp_x="0 : 0.5 : 1"
       sodipodi:type="inkscape:persp3d" />
    <inkscape:perspective
       id="perspective5148"
       inkscape:persp3d-origin="0.5 : 0.33333333 : 1"
       inkscape:vp_z="1 : 0.5 : 1"
       inkscape:vp_y="0 : 1000 : 0"
       inkscape:vp_x="0 : 0.5 : 1"
       sodipodi:type="inkscape:persp3d" />
    <inkscape:perspective
       id="perspective5183"
       inkscape:persp3d-origin="0.5 : 0.33333333 : 1"
       inkscape:vp_z="1 : 0.5 : 1"
       inkscape:vp_y="0 : 1000 : 0"
       inkscape:vp_x="0 : 0.5 : 1"
       sodipodi:type="inkscape:persp3d" />
    <inkscape:perspective
       id="perspective5205"
       inkscape:persp3d-origin="0.5 : 0.33333333 : 1"
       inkscape:vp_z="1 : 0.5 : 1"
       inkscape:vp_y="0 : 1000 : 0"
       inkscape:vp_x="0 : 0.5 : 1"
       sodipodi:type="inkscape:persp3d" />
    <inkscape:perspective
       id="perspective5227"
       inkscape:persp3d-origin="0.5 : 0.33333333 : 1"
       inkscape:vp_z="1 : 0.5 : 1"
       inkscape:vp_y="0 : 1000 : 0"
       inkscape:vp_x="0 : 0.5 : 1"
       sodipodi:type="inkscape:persp3d" />
    <inkscape:perspective
       id="perspective6239"
       inkscape:persp3d-origin="0.5 : 0.33333333 : 1"
       inkscape:vp_z="1 : 0.5 : 1"
       inkscape:vp_y="0 : 1000 : 0"
       inkscape:vp_x="0 : 0.5 : 1"
       sodipodi:type="inkscape:persp3d" />
  </defs>
  <sodipodi:namedview
     id="base"
     pagecolor="#ffffff"
     bordercolor="#666666"
     borderopacity="1.0"
     inkscape:pageopacity="0.0"
     inkscape:pageshadow="2"
     inkscape:zoom="1"
     inkscape:cx="64.696994"
     inkscape:cy="105.74428"
     inkscape:document-units="px"
     inkscape:current-layer="layer1"
     inkscape:window-width="1272"
     inkscape:window-height="748"
     inkscape:window-x="0"
     inkscape:window-y="24"
     showguides="true"
     inkscape:guide-bbox="true"
     width="1052.3622px"
     height="744.09448px"
     showgrid="false"
     inkscape:window-maximized="0" />
  <metadata
     id="metadata7">
    <rdf:RDF>
      <cc:Work
         rdf:about="">
        <dc:format>image/svg+xml</dc:format>
        <dc:type
           rdf:resource="http://purl.org/dc/dcmitype/StillImage" />
        <dc:title></dc:title>
      </cc:Work>
    </rdf:RDF>
  </metadata>
  <g
     inkscape:label="Ebene 1"
     inkscape:groupmode="layer"
     id="layer1"
     transform="translate(-4.8523632,-50.267029)">
    <path
       style="opacity:0.91000000999999997;fill:#005800;fill-opacity:1;stroke:#0d9f00;stroke-width:0.05147722000000000;stroke-linecap:round;stroke-linejoin:miter;stroke-miterlimit:4;stroke-opacity:1;stroke-dasharray:none;stroke-dashoffset:0"
       d="m 106.33171,253.116 c 0,-0.15807 0.49233,-1.46965 1.09407,-2.91465 0.90326,-2.169 1.09502,-3.4704 1.09948,-7.46126 0.006,-5.4909 -0.35865,-6.62316 -3.98354,-12.36471 -2.40127,-3.80339 -3.89593,-5.49222 -5.6669,-6.40301 l -1.10514,-0.56837 0.35256,1.20852 c 0.21324,0.73086 0.16196,1.2085 -0.12968,1.2085 -0.26523,0 -0.6127,0.2857 -0.77216,0.6349 -0.22975,0.50317 -0.41687,0.56216 -0.90198,0.28433 -0.33662,-0.19277 -0.90253,-0.35053 -1.25753,-0.35053 -1.03464,0 -0.74476,0.74555 0.47169,1.21311 l 1.11714,0.42941 -1.61494,0.52942 c -0.88821,0.29118 -1.741081,0.75326 -1.895252,1.02685 -0.229512,0.40722 -0.466501,0.44033 -1.307248,0.18264 -0.952699,-0.292 -1.002418,-0.25602 -0.687849,0.49783 0.186491,0.44693 0.455235,1.03651 0.59722,1.31022 0.168656,0.32512 -0.01166,0.49761 -0.520103,0.49761 -0.428029,0 -0.795865,0.22393 -0.817424,0.49761 -0.04322,0.54867 -0.216588,0.32843 -0.671588,-0.85305 -0.353488,-0.91786 -1.076923,-1.01914 -1.523518,-0.21328 -0.373428,0.67385 -1.371798,0.73737 -2.234299,0.14219 -0.339962,-0.23459 -0.98386,-0.42653 -1.430902,-0.42653 -0.447036,0 -1.093905,-0.25779 -1.437485,-0.57287 -0.463458,-0.42501 -0.942808,-0.52714 -1.857228,-0.39571 -1.545634,0.22217 -1.677509,-0.41879 -0.239507,-1.16408 1.818256,-0.94237 1.012791,-1.56395 -2.02666,-1.56395 -1.542249,0 -1.812991,0.24646 -0.866307,0.78862 0.445817,0.25534 -0.0166,0.29305 -1.969301,0.16061 -3.032985,-0.20576 -6.534168,0.39673 -4.638971,0.79824 1.278435,0.27084 1.339327,0.61142 0.223575,1.25043 -0.784935,0.44953 -0.863592,0.43809 -1.265462,-0.18409 l -0.428514,-0.66341 -0.610981,0.70203 c -0.336045,0.3861 -1.274739,0.8817 -2.085999,1.10134 -0.811251,0.21964 -1.603169,0.51058 -1.759816,0.64652 -0.156641,0.13596 -0.693986,-0.0113 -1.194101,-0.32826 -1.105962,-0.69989 -1.748416,-0.73637 -1.748416,-0.0994 0,0.40427 -0.17336,0.38283 -1.149152,-0.14218 -1.533057,-0.82481 -2.006599,-0.77918 -1.69868,0.16369 0.140443,0.4301 0.07236,1.0379 -0.151297,1.3507 -0.329879,0.46132 -0.413248,0.38589 -0.441554,-0.39952 -0.03426,-0.94992 -0.05367,-0.95849 -1.027925,-0.45355 -0.788274,0.40856 -0.993022,0.42937 -0.993022,0.10101 0,-0.22756 0.253097,-0.55868 0.56244,-0.73584 0.736633,-0.42189 0.187643,-1.21342 -0.841598,-1.21342 -0.443756,0 -0.923037,0.25448 -1.065059,0.56552 -0.31248,0.68434 -1.033745,0.48213 -1.663406,-0.46634 l -0.463805,-0.69865 -1.672692,0.73068 c -1.546914,0.67573 -1.724416,0.69481 -2.360515,0.25349 -0.534898,-0.37108 -0.549834,-0.50376 -0.06718,-0.59681 0.863094,-0.16636 0.778576,-1.63364 -0.118644,-2.06011 -1.160238,-0.55147 -0.351699,-0.89066 1.646911,-0.69087 l 1.8232,0.18222 -1.73779,-0.90159 -1.737792,-0.90157 1.365407,0.11992 c 1.581011,0.13888 1.67728,0.0145 0.54369,-0.70294 -0.772948,-0.48915 -0.755393,-0.52003 0.295735,-0.52003 2.32089,0 5.069518,-1.69629 3.380932,-2.0865 -0.341353,-0.0788 0.552368,-0.15352 1.986044,-0.16588 1.979172,-0.017 2.606689,-0.12605 2.606689,-0.45284 0,-0.2367 0.269374,-0.67741 0.598606,-0.97933 0.488683,-0.44814 0.443096,-0.64735 -0.248263,-1.08487 -1.10363,-0.6984 -1.068706,-0.91766 0.146172,-0.91766 1.118033,0 1.204209,-0.21357 0.508802,-1.26107 -0.578375,-0.8712 -1.493817,-0.95052 -1.854473,-0.1607 -0.142827,0.31281 -0.534141,0.56872 -0.869587,0.56872 -0.335453,0 -1.014315,-0.25591 -1.508584,-0.56872 -0.494269,-0.31279 -1.087474,-0.5687 -1.318231,-0.5687 -0.230756,0 -0.419559,0.25591 -0.419559,0.5687 0,0.32629 -0.331011,0.56872 -0.776534,0.56872 -0.541966,0 -0.744315,0.23622 -0.669895,0.78197 0.189352,1.38854 -0.03088,2.34593 -0.539625,2.34593 -0.273081,0 -0.496512,-0.18793 -0.496512,-0.41763 0,-0.23481 -0.2949,-0.35277 -0.673805,-0.26951 -0.912291,0.20049 -1.984123,-1.34319 -1.700653,-2.44932 0.242852,-0.9476 -0.367962,-1.37814 -1.243687,-0.87661 -0.916763,0.52505 -1.843485,0.35709 -1.843485,-0.33408 0,-0.35779 -0.66121,-1.09355 -1.469355,-1.63501 -1.849023,-1.23891 -1.85557,-1.41106 -0.05367,-1.41106 2.628328,0 2.515452,-1.82402 -0.126724,-2.04794 -0.953871,-0.0808 -0.889894,-0.14141 0.54363,-0.5147 1.410878,-0.36738 4.219053,-2.30221 5.801496,-3.99727 0.261285,-0.27987 1.378438,-0.71553 2.482562,-0.96814 1.842082,-0.42144 1.934013,-0.49091 1.115626,-0.84298 -0.867751,-0.37332 -6.544065,-0.40328 -7.182041,-0.0378 -0.15287,0.0876 0.127699,0.41588 0.623485,0.72965 0.876952,0.55494 0.871111,0.57044 -0.215035,0.57044 -0.707688,0 -1.213837,0.21326 -1.382432,0.58248 -0.440941,0.96566 -1.783075,0.50895 -2.464321,-0.83862 -0.732874,-1.44968 -0.889673,-1.57528 -1.636428,-1.31096 -0.40277,0.14257 -0.392499,0.30718 0.03771,0.60405 0.917528,0.63313 0.125402,0.80868 -1.276078,0.28275 -1.09974,-0.41266 -1.221712,-0.61164 -0.956734,-1.56065 0.236028,-0.84535 0.126212,-1.1267 -0.492858,-1.26274 -1.319616,-0.29 -0.899537,-0.96922 0.81711,-1.32117 l 1.61366,-0.33085 -1.878599,-0.56173 c -2.2273,-0.66601 -1.984285,-1.2011 0.427781,-0.94195 0.93449,0.10036 1.699079,0.066 1.699079,-0.0767 0,-0.46407 -1.16647,-0.94159 -2.300149,-0.94159 -1.204446,0 -1.893637,-0.76006 -1.381834,-1.5239 0.171951,-0.25662 0.623881,-0.46657 1.004287,-0.46657 0.380405,0 0.691647,-0.19195 0.691647,-0.42655 0,-0.24835 0.450959,-0.42654 1.07957,-0.42654 l 1.07957,0 -1.07957,-0.65811 c -1.485413,-0.9055 -1.354225,-1.15052 0.502179,-0.93792 l 1.581753,0.18119 -1.177453,-0.71779 -1.177454,-0.71779 1.65998,0.19014 c 1.499939,0.17181 1.634304,0.13389 1.39365,-0.39315 -0.19327,-0.42325 0.05769,-0.66781 0.914796,-0.89146 1.243147,-0.3244 1.634837,-1.17347 0.541335,-1.17347 -0.351876,0 -1.516272,0.25594 -2.587538,0.56873 -1.071269,0.31279 -2.386328,0.5687 -2.922353,0.5687 -0.917369,0 -0.906125,-0.0417 0.191535,-0.7109 0.641367,-0.39097 1.56085,-0.71088 2.043292,-0.71088 0.482443,0 1.027665,-0.13945 1.211593,-0.30989 0.207709,-0.19247 1.015751,-0.23667 2.132566,-0.11669 l 1.798148,0.19318 -0.986112,-0.63436 -0.986112,-0.63433 1.861921,0.1952 c 1.726356,0.18105 1.861919,0.14588 1.861919,-0.48286 0,-0.46117 0.436847,-0.79565 1.365408,-1.04542 0.916061,-0.24642 1.138096,-0.41401 0.674681,-0.50926 -1.126031,-0.23143 2.959819,-0.91191 5.503565,-0.91658 1.847481,-0.004 2.493228,-0.13685 3.116776,-0.64409 0.727168,-0.59152 0.719934,-0.64626 -0.09597,-0.72556 -0.485353,-0.0472 -1.38485,-0.22859 -1.998871,-0.40323 -0.614021,-0.17465 -1.284317,-0.21452 -1.489538,-0.0885 -0.205219,0.1259 -0.09384,0.28604 0.247508,0.35586 0.341353,0.0698 0.620638,0.25894 0.620638,0.4203 0,0.1621 -0.512702,0.101 -1.145925,-0.13664 -0.805935,-0.30244 -1.400647,-0.34838 -2.004439,-0.15487 -1.227245,0.39333 -3.997028,-0.58088 -4.22324,-1.48541 -0.197495,-0.78966 -0.912572,-1.13913 -1.890969,-0.92411 -0.776584,0.17066 -0.89285,1.1089 -0.169154,1.36503 0.273082,0.0966 0.496514,0.36768 0.496514,0.60227 0,0.27056 -0.226947,0.345 -0.620643,0.2036 -0.341352,-0.12268 -0.956626,-0.19147 -1.367276,-0.15296 -0.752712,0.0705 -0.936895,-0.0718 -2.71262,-2.09777 -0.537188,-0.61288 -1.35625,-1.43884 -1.820138,-1.83549 -0.463889,-0.39665 -1.05517,-1.38834 -1.313949,-2.20376 -0.458601,-1.44501 -0.440789,-1.48256 0.702979,-1.48256 1.454165,0 1.477839,-0.19423 0.101477,-0.83251 -0.64262,-0.29802 -0.921196,-0.63693 -0.695474,-0.84607 0.28439,-0.26353 0.60827,-0.22883 1.323324,0.14175 1.117215,0.57905 1.866699,0.32754 0.9366,-0.3143 -0.520539,-0.3592 -0.52285,-0.5707 -0.01215,-1.11718 0.777101,-0.83156 0.267236,-1.4859 -0.77269,-0.99162 -0.954634,0.45372 -0.941235,-0.27814 0.02947,-1.60861 0.64299,-0.88134 0.850176,-0.96381 1.73779,-0.69176 0.786417,0.24104 1.007763,0.22268 1.007763,-0.0836 0,-0.21585 0.414805,-0.60746 0.921784,-0.8702 0.619807,-0.32125 0.840335,-0.72179 0.673168,-1.22262 -0.232979,-0.69797 -0.15816,-0.73196 1.188389,-0.53985 l 1.437015,0.20501 -1.365407,-0.81923 c -1.629529,-0.97773 -1.699127,-1.21467 -0.356801,-1.21467 0.554726,0 1.129474,-0.18041 1.277201,-0.40087 0.147733,-0.22048 0.772703,-0.47334 1.388837,-0.56189 0.616127,-0.0885 1.39104,-0.50141 1.722024,-0.91745 l 0.601793,-0.75643 1.128992,0.60744 c 1.232455,0.66311 2.089765,0.81259 1.494,0.26052 -0.489544,-0.45364 -0.541091,-5.05585 -0.0566,-5.05583 0.204813,0 0.372385,-0.19596 0.372385,-0.43544 0,-0.59536 -1.339007,-0.84316 -2.240628,-0.4146 -0.597673,0.28407 -0.738446,0.26981 -0.738446,-0.0748 0,-0.23418 -0.138187,-0.82152 -0.307087,-1.30515 -0.26381,-0.75542 -0.12386,-0.92717 0.99303,-1.2186 0.715058,-0.1866 1.300111,-0.50738 1.300111,-0.71283 0,-0.41011 2.477024,-1.24126 3.699181,-1.24126 1.011362,0 0.974519,-0.2747 -0.09948,-0.74159 -0.791348,-0.34403 -0.749655,-0.37856 0.467213,-0.38679 1.556964,-0.01 2.314407,-0.5026 1.163129,-0.75561 -0.50758,-0.11159 -0.684785,-0.36557 -0.494523,-0.70888 0.361166,-0.6517 0.05699,-0.66971 -1.492377,-0.0882 -0.924215,0.34681 -1.420087,0.37637 -2.216832,0.13218 -0.564475,-0.17301 -1.026318,-0.40688 -1.026318,-0.51968 0,-0.36622 3.89076,-0.91231 6.499958,-0.91231 1.894476,0 2.479738,-0.0951 2.293608,-0.37294 -0.13744,-0.20513 0.383917,-0.61689 1.158569,-0.91507 0.774647,-0.29818 1.503553,-0.7504 1.61979,-1.00495 0.141072,-0.30896 0.999271,-0.52466 2.581452,-0.64888 4.162039,-0.3267 6.064517,-0.23458 6.434217,0.31158 0.315203,0.46566 0.376544,0.46675 0.955079,0.0169 0.576897,-0.4485 0.715639,-0.44387 2.074717,0.0693 1.80107,0.67995 5.763947,0.75221 6.677574,0.1218 0.511169,-0.35273 0.470179,-0.53038 -0.223717,-0.9695 -0.802934,-0.5081 -0.800101,-0.55346 0.05147,-0.82638 0.495567,-0.15882 0.726483,-0.38874 0.513167,-0.51091 -0.213325,-0.12218 0.347118,-0.42297 1.245412,-0.66842 1.283907,-0.35083 1.628491,-0.61643 1.610891,-1.24168 -0.02099,-0.74724 0.0767,-0.78476 1.613677,-0.61963 1.692514,0.18185 2.073169,-0.0545 1.040227,-0.64616 -0.327694,-0.1877 -0.457461,-0.34123 -0.288355,-0.34123 1.25782,0 7.125846,1.01302 9.529346,1.64508 2.07429,0.54548 2.99514,0.6703 3.13934,0.42547 0.11223,-0.19052 0.96979,-0.4287 1.90571,-0.52926 0.9359,-0.10049 1.70164,-0.3519 1.70164,-0.55855 0,-0.20664 0.44686,-0.45695 0.99302,-0.55622 0.54617,-0.0992 0.99303,-0.31477 0.99303,-0.47886 0,-0.16599 0.47717,-0.22689 1.07551,-0.13728 0.63353,0.0949 1.60267,-0.049 2.35843,-0.35011 1.96968,-0.78483 3.44702,-0.88895 5.88547,-0.41484 1.77606,0.34533 2.67107,0.37107 4.37267,0.12568 2.61636,-0.3773 3.18931,-0.3852 3.18931,-0.044 0,0.14553 -0.50269,0.30547 -1.11713,0.35545 -0.73327,0.0597 -1.11714,0.2863 -1.11714,0.65955 0,0.31281 -0.27821,0.67071 -0.61826,0.79535 -0.94786,0.34745 1.17046,1.81287 2.90828,2.01193 1.40345,0.16076 1.93138,0.82184 0.9373,1.1737 -1.04025,0.36819 -0.43377,0.68947 0.99302,0.52605 1.16619,-0.13357 1.48952,-0.0703 1.48952,0.29146 0,0.72212 0.95089,0.55008 3.0971,-0.56039 1.44204,-0.74613 2.30039,-0.98697 3.17574,-0.89114 0.96179,0.10525 1.14539,0.0336 0.92631,-0.36181 -0.20187,-0.36427 0.15165,-0.58175 1.35304,-0.83233 0.89448,-0.1866 2.27102,-0.52737 3.05898,-0.75728 1.61337,-0.47078 1.95966,-0.40867 1.50501,0.2699 -0.17221,0.25697 -0.7919,0.47129 -1.37712,0.47628 -1.0573,0.008 -1.05774,0.0124 -0.0711,0.45018 0.80632,0.35818 1.80948,0.40595 5.33618,0.25401 3.75951,-0.16195 4.30437,-0.12925 4.05472,0.24337 -0.2131,0.31807 0.17772,0.48056 1.49673,0.62228 0.98189,0.10549 2.22923,0.12531 2.77185,0.0441 0.54264,-0.0813 1.11176,-0.0317 1.26469,0.10987 0.15292,0.14171 0.93819,0.25764 1.74504,0.25764 0.80683,0 1.85492,0.12019 2.32913,0.26717 0.47418,0.14697 1.50015,0.34473 2.27997,0.4395 0.8169,0.0992 1.52349,0.40385 1.66723,0.71864 0.13723,0.30049 0.67221,0.62318 1.18891,0.71708 0.67698,0.12306 0.9394,0.43875 0.9394,1.13006 0,0.97735 0.67244,1.51996 1.23629,0.99749 0.52538,-0.48684 1.24628,-0.32151 1.24628,0.28582 0,0.3372 0.51316,0.7087 1.24127,0.89871 1.75526,0.45802 1.54133,0.75277 -0.62065,0.85525 l -1.86192,0.0882 3.36094,1.37952 c 3.80788,1.56299 5.02038,2.45928 3.3268,2.45928 -0.57371,0 -1.49444,-0.13833 -2.04603,-0.3074 -1.33332,-0.40865 -1.5773,-0.20851 -0.85406,0.70057 0.44482,0.5591 0.91199,0.73194 1.82843,0.67653 0.67703,-0.041 1.32886,0.0854 1.44852,0.28098 0.1197,0.1955 -0.14043,0.35544 -0.57801,0.35544 -0.60042,0 -0.71929,0.17415 -0.4845,0.70988 0.3065,0.69943 0.29018,0.70366 -1.1077,0.28612 -1.59636,-0.47682 -3.15659,-0.55928 -3.15659,-0.16682 0,0.14323 0.94961,0.6846 2.11017,1.20297 1.16061,0.51839 2.38621,1.15588 2.72356,1.41671 0.33736,0.26079 2.17161,0.74523 4.07616,1.07654 3.66088,0.63683 4.48264,1.07329 4.11191,2.18403 -0.28,0.83888 -1.10551,0.90709 -1.10551,0.0914 0,-0.82774 -1.20576,-0.52823 -1.38893,0.345 -0.0941,0.44902 0.4003,1.09886 1.36541,1.79438 0.83219,0.59973 1.51307,1.19214 1.51307,1.31651 0,0.12429 0.44686,0.30731 0.99301,0.40656 1.06903,0.19433 1.36805,0.71089 0.41147,0.71089 -0.31983,0 -0.99194,0.21271 -1.49353,0.4727 -0.84738,0.43918 -0.85431,0.5092 -0.0977,0.98799 0.76266,0.48264 0.73633,0.5323 -0.41496,0.783 -0.67608,0.14722 -1.5147,0.66228 -1.86353,1.14463 -0.69478,0.96063 -1.34946,1.0989 -2.19688,0.46402 -0.45738,-0.34271 -0.91325,-0.3565 -2.67726,-0.0811 -2.8975,0.45247 -2.67817,1.17284 0.39268,1.28989 2.07014,0.0789 2.30096,0.16929 3.22286,1.26214 0.54615,0.64744 1.60603,1.37694 2.35531,1.62115 1.42089,0.46308 1.90759,1.04981 0.63965,0.77116 -1.11508,-0.24505 -1.33233,0.23621 -0.51282,1.13606 0.40649,0.44638 0.74044,1.00992 0.74213,1.25233 0.002,0.24241 0.26287,0.58954 0.58042,0.7714 0.43881,0.25132 0.26009,0.39975 -0.74476,0.61854 -1.48203,0.3227 -1.63589,0.75137 -0.56159,1.56481 0.95675,0.72445 0.94775,1.40527 -0.0159,1.1935 -0.47353,-0.10411 -0.74475,0.006 -0.74475,0.298 0,0.42097 -0.0767,0.42214 -0.86891,0.0132 -1.39895,-0.72199 -3.53287,-0.92336 -3.90468,-0.36843 -0.28896,0.43122 -0.38521,0.43216 -1.19663,0.0112 -0.6762,-0.35047 -0.97102,-0.3752 -1.26168,-0.10587 -0.26572,0.24622 -0.50261,0.16061 -0.791,-0.28582 -0.29075,-0.45014 -0.7407,-0.61059 -1.53189,-0.54624 -0.8931,0.0725 -1.15078,0.30053 -1.27084,1.12405 -0.14888,1.02069 -0.17096,1.03033 -1.86194,0.81191 -1.30081,-0.16799 -1.71129,-0.12829 -1.71129,0.16557 0,0.59065 1.72794,0.99065 3.43493,0.79513 0.98381,-0.11271 1.53019,-0.0611 1.53019,0.14461 0,0.17597 -0.22342,0.3199 -0.4965,0.3199 -0.2731,0 -0.49653,0.12797 -0.49653,0.28436 0,0.15639 0.67029,0.28438 1.48956,0.28438 0.96188,0 1.48952,0.14429 1.48952,0.40735 0,0.22404 0.44685,0.4886 0.993,0.58788 1.15942,0.21074 1.33407,0.71086 0.24827,0.71086 -1.02836,0 -0.94002,0.21154 0.49651,1.18929 0.7328,0.49875 1.24128,1.20162 1.24128,1.71582 0,1.01102 -1.37321,1.76949 -2.35702,1.30187 -0.74248,-0.35288 -0.77753,-0.10624 -0.16021,1.12654 0.40714,0.81294 0.34825,0.92227 -0.49649,0.92227 -0.52712,0 -0.95837,0.19194 -0.95837,0.42653 0,0.2346 -0.22777,0.42655 -0.50619,0.42655 -0.27842,0 -1.04211,0.67178 -1.69709,1.49284 -0.66278,0.8308 -1.209,1.25263 -1.23162,0.95116 -0.0394,-0.52362 -0.0737,-0.52453 -1.03371,-0.027 -0.8526,0.44191 -0.99301,0.45148 -0.99301,0.0678 0,-0.2458 -0.18803,-0.48955 -0.41781,-0.54168 -0.61597,-0.14001 -1.13829,-1.94333 -0.5628,-1.94333 0.65253,0 0.61767,-0.77222 -0.0454,-1.00694 -0.29126,-0.10313 -0.84616,0.0493 -1.23312,0.33865 -0.67452,0.50436 -0.71656,0.49967 -1.01789,-0.1137 -0.45792,-0.93202 -1.19156,-0.78258 -1.19156,0.2427 l 0,0.88255 -1.75506,-0.88255 c -0.96529,-0.48535 -2.08246,-0.8825 -2.48255,-0.8825 -0.99283,0 -0.94373,0.0704 0.76204,1.09264 1.59437,0.95551 1.96309,2.15468 0.74476,2.42245 -0.40961,0.09 -0.74476,0.43115 -0.74476,0.75807 0,0.32692 -0.22344,0.51533 -0.49651,0.4187 -0.27308,-0.0967 -0.49653,-0.42413 -0.49653,-0.72767 0,-0.79582 -0.88143,-0.68051 -2.5316,0.33118 -1.66176,1.01881 -1.88974,1.54941 -0.4801,1.11737 1.46048,-0.44764 2.14608,-0.37425 1.61175,0.17255 -0.25091,0.25679 -0.34335,0.73666 -0.20536,1.06634 0.20522,0.49032 0.13017,0.53472 -0.41247,0.24396 -0.79861,-0.4279 -2.89888,-0.46004 -4.68268,-0.0716 -1.37445,0.29927 -1.27537,0.85359 0.15258,0.85359 0.46265,0 1.94109,0.44786 3.28542,0.99524 2.23263,0.9091 4.752,1.31902 4.752,0.77322 0,-0.12217 0.71113,-0.37572 1.5803,-0.56364 1.48513,-0.32101 1.73923,-0.27288 4.219,0.79936 3.05667,1.3217 4.13095,1.61184 4.13095,1.1158 0,-0.19424 0.46968,-0.0113 1.04376,0.40681 0.79973,0.58229 1.19824,0.6865 1.70459,0.44582 0.50941,-0.24211 0.86001,-0.13057 1.53047,0.48694 0.47828,0.44057 1.31417,1.08891 1.85754,1.44078 1.12384,0.72787 2.56661,0.87266 2.12481,0.21328 -0.15721,-0.23459 -0.0624,-0.42652 0.2107,-0.42652 1.43641,0 0.81083,2.9768 -0.84589,4.02523 -0.68112,0.43101 -0.65178,0.53762 0.29765,1.08134 1.32722,0.76012 2.11635,1.92503 1.75079,2.5846 -0.15459,0.27899 -0.0485,0.58951 0.23564,0.69012 0.67916,0.24039 0.66381,1.20111 -0.0229,1.44421 -0.29688,0.10513 -0.78842,0.0488 -1.09234,-0.12538 -0.30391,-0.17405 -1.00455,-0.31644 -1.55694,-0.31644 -0.86527,0 -0.77476,0.12006 0.65372,0.86731 0.91189,0.47701 1.56281,0.92183 1.44643,0.98849 -0.3743,0.21436 -5.58004,-1.02983 -6.61474,-1.58095 -0.69806,-0.37185 -1.22358,-0.45297 -1.73779,-0.26826 -0.40542,0.14563 -1.1822,0.18526 -1.72621,0.088 -0.85542,-0.15282 -0.90112,-0.11595 -0.33808,0.27257 0.35808,0.2471 1.30333,0.53132 2.10057,0.63159 2.02743,0.25503 2.25509,0.6436 0.62003,1.05819 -0.76637,0.19436 -1.68863,0.51479 -2.04949,0.71211 -0.36087,0.19733 -0.97529,0.35875 -1.36543,0.35875 -0.39011,0 -0.70929,0.18793 -0.70929,0.41762 0,0.24094 -0.2938,0.35305 -0.69455,0.26495 -0.87406,-0.19207 -1.39096,0.25991 -0.98689,0.86298 0.22767,0.33976 0.47525,0.37989 0.95044,0.15403 1.03185,-0.49043 1.29578,0.13577 0.49978,1.18568 -0.40656,0.53621 -0.73143,0.73575 -0.74237,0.45591 -0.0224,-0.57278 -1.03421,-0.6558 -1.90619,-0.1564 -0.46341,0.26539 -0.5958,0.24079 -0.5958,-0.11072 0,-0.24854 -0.4324,-0.75398 -0.96085,-1.1232 -0.91962,-0.64251 -0.98989,-0.6489 -1.63847,-0.14903 -0.64227,0.49501 -0.70819,0.4839 -1.26283,-0.21325 -0.32184,-0.40455 -0.91016,-0.73555 -1.30734,-0.73555 -0.95249,0 -3.98518,2.1401 -5.15722,3.63932 l -0.93001,1.18965 -0.66192,-0.70835 c -0.3641,-0.3896 -0.84765,-0.70836 -1.07459,-0.70836 -0.52449,0 -0.518,0.0885 0.0716,0.97671 0.5791,0.87231 0.0127,0.9464 -1.22899,0.1607 -1.1458,-0.7251 -1.55439,-0.71674 -1.89941,0.0388 -0.23156,0.50716 -0.52828,0.57878 -1.79571,0.43365 -1.75433,-0.20097 -1.89851,0.0663 -0.67549,1.25209 0.97375,0.94404 0.54068,1.39539 -0.85862,0.89494 -1.49831,-0.53591 -1.90005,-0.42144 -2.2479,0.64041 -0.17748,0.5418 -0.62377,1.12819 -0.99166,1.30307 -0.81702,0.38834 -2.29702,0.25819 -2.57896,-0.2268 -0.13125,-0.22575 0.0804,-0.29254 0.57949,-0.18285 0.91062,0.20013 1.0669,-0.46961 0.28996,-1.24258 -0.27295,-0.27157 -0.7143,-0.84566 -0.98073,-1.27576 -0.55695,-0.89903 -1.72557,-1.00415 -3.16081,-0.28435 -0.95006,0.47651 -0.97758,0.47481 -0.6486,-0.0398 0.23694,-0.37067 0.032,-0.66246 -0.6606,-0.94028 -1.29275,-0.51857 -1.28314,-0.93924 0.0217,-0.93924 1.27826,0 2.94644,-0.49431 2.94644,-0.87308 0,-0.1857 -0.33471,-0.18178 -0.96464,0.0113 -0.68056,0.20857 -1.33427,0.1992 -2.21962,-0.0317 -0.91809,-0.23957 -1.43243,-0.24311 -1.91613,-0.0133 -0.36363,0.17285 -1.12437,0.24489 -1.69053,0.16009 -1.31621,-0.19711 -4.88115,0.83757 -5.87311,1.70461 -1.27022,1.11025 -2.17863,4.68526 -2.77065,10.9039 -0.55478,5.82742 -0.32146,12.57248 0.50692,14.65418 l 0.42433,1.06631 -7.64365,0 c -4.81817,-1e-5 -7.64366,-0.10622 -7.64366,-0.28736 z m 7.76582,-25.74594 c 1.18135,-1.86853 2.15163,-3.49009 2.15617,-3.6035 0.006,-0.11332 -0.69726,-0.12532 -1.55953,-0.0265 -1.47789,0.16928 -1.54607,0.14035 -1.1895,-0.50473 0.20802,-0.37637 0.49111,-1.10017 0.62908,-1.60845 0.1471,-0.54202 0.54273,-0.92417 0.95684,-0.92417 0.3883,0 0.83465,-0.19193 0.99183,-0.42652 0.15715,-0.2346 0.61257,-0.42651 1.01195,-0.42651 0.46302,0 0.66869,-0.22381 0.56751,-0.61754 -0.11376,-0.4427 -0.7648,-0.73283 -2.29985,-1.02486 -1.17765,-0.22402 -2.26072,-0.33887 -2.40682,-0.25523 -0.14608,0.0837 0.13544,0.54092 0.62558,1.01611 0.49014,0.4752 0.79121,0.89994 0.66902,0.94383 -0.12223,0.044 -0.89245,0.27587 -1.71171,0.51544 -1.24779,0.36489 -1.5143,0.63024 -1.64222,1.63503 -0.13315,1.04629 -0.30235,1.19946 -1.32479,1.19946 -3.06798,0 -3.39466,0.72199 -1.72639,3.81533 1.16687,2.16359 2.84273,3.93117 3.59166,3.78817 0.2823,-0.054 1.47984,-1.62677 2.66117,-3.49529 l 0,0 z m -28.122811,2.28974 c 0,-0.79418 -0.724326,-0.95335 -1.188168,-0.26107 -0.476758,0.71152 -0.357956,0.97195 0.443391,0.97195 0.463417,0 0.744777,-0.26854 0.744777,-0.71088 z m 6.488183,-2.19833 c -0.889823,-0.45533 -1.747816,-0.75345 -1.906652,-0.66248 -0.452593,0.25919 2.461151,1.86675 3.023064,1.66786 0.279882,-0.099 -0.213387,-0.54328 -1.116412,-1.00538 l 0,0 z m 56.128208,-3.71266 c -0.40549,-0.23224 -0.55237,-0.20043 -0.55237,0.11968 0,0.56523 0.66764,0.94761 0.91441,0.52368 0.10463,-0.17985 -0.0583,-0.46935 -0.36204,-0.64334 l 0,0 z m -22.07375,-0.0727 c 0.16171,-0.24134 0.1601,-0.51547 -0.002,-0.60924 -0.35364,-0.20253 -1.81115,0.44007 -1.81115,0.7985 0,0.42912 1.50561,0.2721 1.81472,-0.18926 l -1e-4,0 z m -61.450304,-4.85914 c -0.430197,-0.29684 -0.750481,-0.32641 -1.137108,-0.10496 -0.386634,0.22143 -0.336305,0.37971 0.178675,0.56199 1.009339,0.35726 1.67703,0.0388 0.958433,-0.45698 z m 111.769364,-1.95306 c 0,-0.23461 -0.33513,-0.42656 -0.74474,-0.42656 -0.77537,0 -0.98509,0.33633 -0.41378,0.66348 0.5713,0.32721 1.15852,0.2071 1.15852,-0.23692 z m -115.190798,-0.1254 c 0,-0.14717 -0.223432,-0.34665 -0.496514,-0.44331 -0.273084,-0.0967 -0.49651,0.0237 -0.49651,0.26757 0,0.24382 0.223426,0.44331 0.49651,0.44331 0.273082,0 0.496514,-0.12043 0.496514,-0.26757 z m -13.902338,-1.42177 c 0,-0.3355 -0.968377,-0.69441 -1.324036,-0.49069 -0.355654,0.20366 0.271007,0.75826 0.856825,0.75826 0.256965,0 0.467211,-0.12043 0.467211,-0.26757 z m 129.254346,-0.2039 c 0.44899,-0.25716 -0.66376,-0.98172 -1.21049,-0.78822 -0.68454,0.2423 -0.51788,0.97532 0.22176,0.97532 0.36412,0 0.80904,-0.0841 0.98873,-0.1871 l 0,0 z m -71.7493,-8.48567 c 0.45636,-0.57358 0.43162,-0.71089 -0.12793,-0.71089 -0.38144,0 -1.04695,-0.0777 -1.4789,-0.17262 -0.61231,-0.13456 -0.78536,0.022 -0.78536,0.71091 0,1.11463 1.55354,1.22674 2.39219,0.1726 z m 7.34291,-0.0233 c -0.16577,-0.24736 -0.30138,-0.63126 -0.30138,-0.85306 0,-0.22181 -0.33516,-0.40328 -0.74478,-0.40328 -0.89094,0 -0.98748,0.88467 -0.14894,1.36489 0.84845,0.48593 1.55067,0.42214 1.1951,-0.10859 l 0,0 z m -12.8384,-1.4223 c -0.47314,-0.27096 -1.42173,0.16795 -1.06911,0.49469 0.20958,0.19422 0.48729,0.18931 0.84389,-0.015 0.29231,-0.1674 0.39368,-0.38329 0.22522,-0.47978 l 0,-1e-5 z m 15.26539,0.4508 c 1.596,-0.34751 1.18755,-0.85359 -0.68889,-0.85359 -1.6238,0 -2.0694,0.1932 -1.70389,0.73868 0.31756,0.47396 0.66686,0.49072 2.39278,0.11494 l 0,0 z m -55.855166,-0.19139 c 0,-0.35707 -1.640754,-1.23087 -2.31126,-1.23087 -0.828712,0 -0.870246,0.62337 -0.07201,1.08054 0.631951,0.3619 2.383264,0.4724 2.383264,0.15033 l 0,0 z m 48.161666,-0.23563 c -0.33996,-0.2346 -1.06495,-0.42655 -1.61112,-0.42655 -0.82639,0 -0.8893,0.0716 -0.37493,0.42655 0.33995,0.23459 1.06498,0.42652 1.61113,0.42652 0.82641,0 0.8893,-0.0716 0.37492,-0.42652 z m -56.105864,-0.85307 c 0,-0.27071 -0.47568,-0.42652 -1.302072,-0.42652 -1.101109,0 -1.206673,0.0659 -0.683973,0.42652 0.339956,0.23459 0.925887,0.42653 1.302076,0.42653 0.376183,0 0.683969,-0.19194 0.683969,-0.42653 z m 2.979074,0.13326 c 0,-0.36652 -1.414597,-0.69748 -1.868953,-0.43729 -0.185125,0.10599 -0.0079,0.31182 0.393792,0.45731 0.961132,0.34811 1.475161,0.34114 1.475161,-0.0202 z m 67.27741,-0.27542 c 0.16876,-0.15642 1.20599,-0.28436 2.30496,-0.28436 1.37621,0 1.93467,-0.11059 1.79422,-0.35546 -0.47047,-0.82023 -7.1912,-0.324 -7.70227,0.56873 -0.24882,0.43456 3.13868,0.50137 3.60309,0.071 l 0,0 z m -61.319264,-0.85305 c 0,-0.15638 -0.335144,-0.28436 -0.744768,-0.28436 -0.409626,0 -0.74477,0.12798 -0.74477,0.28436 0,0.15639 0.335144,0.28438 0.74477,0.28438 0.409624,0 0.744768,-0.12799 0.744768,-0.28438 z m 75.508024,-0.54683 c 0.79825,-0.45717 1.45134,-1.04052 1.45134,-1.29638 0,-0.54248 -0.89957,-0.31139 -1.90861,0.49029 -0.61461,0.48828 -0.76042,0.49529 -1.84445,0.0884 -1.51438,-0.56826 -1.70856,-0.55646 -1.70856,0.10375 0,1.63674 1.75513,1.90538 4.01028,0.61384 l 0,0 z m -87.424316,-0.0219 c 0,-0.31278 -0.223432,-0.56869 -0.49651,-0.56869 -0.273082,0 -0.496513,0.25591 -0.496513,0.56869 0,0.31281 0.223431,0.56873 0.496513,0.56873 0.273078,0 0.49651,-0.25592 0.49651,-0.56873 z m 71.001226,0.11844 c 0,-0.50214 -1.06884,-0.41469 -1.37574,0.11259 -0.10805,0.18572 0.15723,0.33768 0.5896,0.33768 0.43238,0 0.78614,-0.20261 0.78614,-0.45024 z m 9.26291,-0.76368 c -0.13603,-0.19252 -0.23902,0.0339 -0.22888,0.50304 0.01,0.46918 0.12133,0.62669 0.24726,0.35002 0.1259,-0.27668 0.11769,-0.66054 -0.0185,-0.85306 l 5e-5,0 z m -1.81523,-0.0894 c 0,-0.24761 -0.26531,-0.39957 -0.58961,-0.33765 -0.92063,0.17575 -1.07333,0.78787 -0.19651,0.78787 0.43237,0 0.78612,-0.20257 0.78612,-0.45022 z m 28.44504,-4.38379 c 0.19264,-0.42183 0.0153,-0.56869 -0.68684,-0.56869 -0.91902,0 -1.2854,0.56419 -0.61552,0.94783 0.58518,0.33515 1.03617,0.20387 1.30236,-0.37914 l 0,0 z m 13.63461,-0.0711 c -0.31285,-0.53806 -1.86215,-0.61455 -1.86215,-0.092 0,0.26378 0.42451,0.44739 1.0344,0.44739 0.60672,0 0.94896,-0.14695 0.82775,-0.35544 z m 0.45272,-1.99049 c -0.13775,-0.19548 -0.25045,-0.0355 -0.25045,0.35546 0,0.39098 0.11274,0.55094 0.25045,0.35544 0.13773,-0.19551 0.13773,-0.51538 0,-0.7109 z m 3.14676,-0.49762 c 0,-0.15639 -0.33515,-0.28434 -0.74479,-0.28434 -0.40961,0 -0.74476,0.12795 -0.74476,0.28434 0,0.1564 0.33515,0.28435 0.74476,0.28435 0.40964,0 0.74479,-0.12795 0.74479,-0.28435 z m -78.26469,-6.12041 c 0.20588,-0.30725 0.66393,-0.37984 1.57271,-0.24921 0.95593,0.1374 1.5416,0.0248 2.30153,-0.44229 0.69822,-0.42921 1.37059,-0.57607 2.13455,-0.46626 1.38182,0.19861 2.50122,-0.46923 2.98958,-1.78357 0.27552,-0.74156 0.2039,-0.92925 -0.31714,-0.83114 -0.37015,0.0697 -0.74667,0.48643 -0.83674,0.92609 l -0.16374,0.79938 -3.43807,-0.16508 c -3.41872,-0.16413 -3.44234,-0.16034 -4.1935,0.67156 -0.801511,0.88766 -1.493394,1.06591 -1.867758,0.48119 -0.405784,-0.63383 -1.480408,0.23134 -1.112336,0.8955 0.391481,0.7064 2.488818,0.82362 2.930914,0.16383 l 0,0 z m 13.62371,-0.96825 c 0.13328,-0.22903 -0.20334,-0.31899 -0.96239,-0.2572 -0.64205,0.0523 -1.24166,0.31824 -1.33246,0.59108 -0.13514,0.40608 0.0394,0.45271 0.96239,0.25719 0.62011,-0.13136 1.21972,-0.39735 1.33246,-0.59107 z m -21.752131,-0.28586 c 0,-0.51157 -1.023425,-1.802 -1.302428,-1.6422 -0.421201,0.24121 0.317291,1.90806 0.845367,1.90806 0.251377,0 0.457061,-0.11969 0.457061,-0.26586 z m 4.623942,-1.18069 c -0.388688,-0.2226 -0.633146,-0.2226 -0.873367,0 -0.516518,0.47862 0.214095,0.99583 0.873367,0.61827 0.388699,-0.22262 0.388699,-0.39568 0,-0.61827 z m 10.519689,-1.11265 c -0.16879,-0.15636 -0.62883,-0.28434 -1.02233,-0.28434 -0.3935,0 -0.71548,0.12798 -0.71548,0.28434 0,0.1564 0.46005,0.28435 1.02234,0.28435 0.56227,0 0.88423,-0.12795 0.71547,-0.28435 z m -5.7099,-0.55192 c 0,-0.3355 -0.96837,-0.69437 -1.32403,-0.4907 -0.355664,0.20368 0.271,0.75828 0.85682,0.75828 0.25697,0 0.46721,-0.12044 0.46721,-0.26758 z m -38.989064,-1.22531 c 0.735943,-0.59735 0.717701,-0.67279 -0.275105,-1.13741 -0.584834,-0.27368 -1.493296,-0.49762 -2.018817,-0.49762 -0.77922,0 -0.86389,0.098 -0.458974,0.53133 0.273081,0.29222 0.365055,0.60659 0.204385,0.69861 -0.495252,0.28364 0.253772,1.0449 1.028099,1.0449 0.402705,0 1.086891,-0.28792 1.520412,-0.63981 z m 124.267494,0.28436 c -0.11247,-0.1955 -0.74546,-0.3912 -1.40679,-0.43489 -1.1644,-0.0769 -1.17194,-0.0656 -0.23858,0.35545 1.16704,0.5266 1.92351,0.56312 1.64537,0.0795 l 0,0 z M 52.708402,183.43548 c 0,-0.32199 -0.22343,-0.50637 -0.496514,-0.40974 -0.273074,0.0967 -0.496508,0.36014 -0.496508,0.58551 0,0.22536 0.223434,0.40973 0.496508,0.40973 0.273084,0 0.496514,-0.26345 0.496514,-0.5855 z m 123.631508,-0.12537 c 0,-0.23459 -0.33513,-0.42654 -0.74477,-0.42654 -0.77534,0 -0.98506,0.33633 -0.41374,0.6635 0.5713,0.32719 1.15851,0.20708 1.15851,-0.23696 z M 46.750258,183.02574 c 0,-0.23459 -0.223433,-0.4265 -0.496508,-0.4265 -0.273083,0 -0.496516,0.19191 -0.496516,0.4265 0,0.23462 0.223433,0.42653 0.496516,0.42653 0.273075,0 0.496508,-0.19191 0.496508,-0.42653 z m 12.810012,-0.48338 c 0.805676,-0.46143 0.750388,-0.79619 -0.131482,-0.79619 -0.400014,0 -0.966452,0.25591 -1.258752,0.56869 -0.408104,0.43672 -0.377593,0.56871 0.131485,0.56871 0.364613,0 0.931052,-0.15354 1.258749,-0.34121 z m 120.16749,-0.97899 c -0.19192,-0.55849 -1.70538,-1.1599 -2.20246,-0.87521 -0.39296,0.22505 1.19436,1.34235 1.90705,1.34235 0.25079,0 0.38373,-0.21022 0.29541,-0.46714 l 0,0 z m -0.90528,-2.251 c 0,-0.0691 -0.34834,-0.12538 -0.77408,-0.12538 -0.42573,0 -0.63372,0.13004 -0.46219,0.28897 0.28342,0.26263 1.23627,0.13654 1.23627,-0.16359 z m -66.63598,-2.86563 c -0.53313,-0.30534 -1.1248,-0.38968 -1.72005,-0.24523 -0.80846,0.1962 -0.77207,0.24385 0.33387,0.43708 1.97217,0.34457 2.25458,0.30546 1.38618,-0.19185 z m 17.97778,-1.02746 c 0,-0.333 -0.7233,-0.25015 -0.93094,0.10661 -0.10239,0.17596 0.0651,0.27193 0.37237,0.21325 0.30723,-0.0587 0.55857,-0.2026 0.55857,-0.31988 z m 41.21052,-1.20848 c 0,-0.23462 -0.33514,-0.42654 -0.74475,-0.42654 -0.77535,0 -0.98508,0.3363 -0.41377,0.66349 0.5713,0.32719 1.15852,0.20707 1.15852,-0.23695 z m 8.44071,-1.80267 c 0,-0.28376 -2.22432,-0.89871 -3.2507,-0.89871 -1.1139,0 -0.85289,0.55677 0.39575,0.8442 1.44199,0.33195 2.85495,0.35892 2.85495,0.0545 z m 0,-1.75177 c 0,-0.38241 -0.33103,-0.5687 -1.01049,-0.5687 -0.85664,0 -0.92957,0.0866 -0.47905,0.5687 0.29229,0.31279 0.74699,0.56871 1.01048,0.56871 0.26349,0 0.47906,-0.25592 0.47906,-0.56871 z M 57.673528,157.02414 c 0,-0.49263 -0.873915,-0.58377 -1.494073,-0.1558 -0.510598,0.35232 -0.436719,0.42337 0.440253,0.42337 0.5796,0 1.05382,-0.1204 1.05382,-0.26757 z"
       id="path5719"
       inkscape:export-filename="/home/floyd/projekty/lacerta/repository/lacerta/site_media/dupa.png"
       inkscape:export-xdpi="90"
       inkscape:export-ydpi="90" />
    <path
       style="fill:none;stroke:#000000;stroke-width:6.73562192999999976px;stroke-linecap:butt;stroke-linejoin:miter;stroke-opacity:1"
       d="m 34.930834,255.83295 c 55.22643,7.7522 111.206756,-8.02304 167.055056,-8.02304"
       id="path3029" />
    <path
       style="fill:none;stroke:#000000;stroke-width:5.65685415000000003px;stroke-linecap:butt;stroke-linejoin:miter;stroke-opacity:1"
       d="M 34.298257,306.98677 C 89.161494,290.97375 152.84899,295.6574 201.1843,295.6574"
       id="path3031" />
    <path
       style="fill:none;stroke:#000000;stroke-width:5.65685415000000003px;stroke-linecap:butt;stroke-linejoin:miter;stroke-opacity:1"
       d="M 33.969258,289.29513 C 88.832494,273.28212 152.51998,277.96574 200.85528,277.96574"
       id="path3031-0" />
    <path
       style="fill:none;stroke:#040000;stroke-width:2.95700002;stroke-linecap:butt;stroke-linejoin:miter;stroke-opacity:1;stroke-miterlimit:4;stroke-dasharray:23.65600014,23.65600014;stroke-dashoffset:0"
       d="M 34.399549,298.24648 C 89.262784,282.23347 152.95027,286.91709 201.28557,286.91709"
       id="path3031-0-9" />
    <path
       style="fill:none;stroke:#003a8b;stroke-width:8.7910223;stroke-linecap:square;stroke-linejoin:miter;stroke-miterlimit:4;stroke-opacity:1;stroke-dasharray:none"
       d="m 40.122589,266.42029 c 51.500578,7.27828 103.704181,-7.53255 155.784681,-7.53255"
       id="path3029-0" />
    <path
       style="fill:none;stroke:#003a8b;stroke-width:8.58161068;stroke-linecap:square;stroke-linejoin:miter;stroke-miterlimit:4;stroke-opacity:1;stroke-dasharray:none"
       d="M 39.938186,278.13112 C 91.273714,262.22532 150.86609,266.87757 196.09343,266.87757"
       id="path3031-0-5" />
  </g>
</svg>
